# xmcd CD database file
#
# Track frame offsets:
#	150
#	17827
#	38627
#	55952
#	86600
#
# Disc length: 1691 seconds
#
# Revision: 1
# Processed by: cddbd v1.5.2PL0 Copyright (c) Steve Scherf et al.
# Submitted via: CDex 1.70beta2
#
DISCID=35069905
DTITLE=TLC - Damaged
DYEAR=2003
DGENRE=R&B
TTITLE0=Damaged [Radio Edit]
TTITLE1=Hands Up [Richard K Extended Mix]
TTITLE2=Hands Up [Richard K Radio Mix]
TTITLE3=Hands Up Feat Clipse [So So Def Remix] 
TTITLE4=DATA
EXTD=YEAR: 2003
EXTT0=
EXTT1=
EXTT2=
EXTT3=
EXTT4=
PLAYORDER=
